<?xml version="1.0" encoding="UTF-8"?>
<svg id="Layer_2" data-name="Layer 2" xmlns="http://www.w3.org/2000/svg" viewBox="0 0 313.51 393.34">
  <defs>
    <style>
      .cls-1 {
        fill: #f97316;
      }

      .cls-2 {
        fill: #222;
      }
    </style>
  </defs>
  <g id="Layer_1-2" data-name="Layer 1">
    <path class="cls-1" d="m154.78.03C182.65.03,210.52.12,238.39,0c21.8-.09,39.94,7.91,54.24,24.23,10.46,11.94,16.52,26.04,16.66,41.91.36,40.05.49,80.1,0,120.14-.43,35.11-31.52,65.51-66.85,65.95-26.24.32-52.48,0-78.73.22-2.9.02-6.18,1.08-8.61,2.68-21.81,14.31-43.47,28.85-65.18,43.32-3.74,2.49-7.51,4.93-11.2,7.49-4.71,3.27-9.76,4.09-14.84,1.42-5.18-2.72-7.53-7.33-7.49-13.25.08-13.1-.03-26.2.07-39.3.02-2.56-.82-3.62-3.36-4.37C22.83,241.59,5.44,221.32.31,190.42c-.44-2.68-.25-5.48-.25-8.22C.04,144.9.21,107.59,0,70.29-.19,35.21,26.07,4.44,62.2.35c3.46-.39,6.99-.3,10.49-.31,27.37-.02,54.73-.01,82.1,0Zm-14.76,146.39c0,1.76-.16,4.76.03,7.74.58,8.88,7.12,15.29,15.09,14.95,8.38-.36,14.22-6.65,14.37-15.63.09-5.11.13-10.23,0-15.34-.14-4.97,1.31-9.47,4.29-13.25,2.28-2.89,5.18-5.35,8.04-7.73,16.31-13.61,20.55-35.42,10.4-54.07-9.05-16.64-28.8-25.17-46.75-21.06-19.51,4.47-33.72,22.2-33.46,41.53.12,8.5,5.92,14.7,14.06,14.86,8.56.16,14.6-5.56,15.06-14.26.34-6.43,5.01-12.44,10.48-13.48,6.81-1.31,12.99,1.89,15.62,8.07,2.52,5.93.55,12.26-5.05,16.46-5.84,4.38-10.79,9.55-14.65,15.82-6.51,10.55-7.81,22.17-7.52,35.4Zm14.93,64.91c8.01-.05,14.53-6.59,14.54-14.59,0-8.14-6.76-14.89-14.82-14.79-7.78.1-14.57,6.94-14.58,14.68-.01,8.16,6.64,14.74,14.86,14.69Z"/>
    <path class="cls-1" d="m204.62,317.65c9.96-5.7,13.56-5.26,21.53,2.15,4.55-1.89,8.71-4.27,13.19-5.35,12.62-3.04,22.34,7.32,18.3,19.62-4.28,13-9.24,25.77-13.91,38.65-.42,1.17-1.15,2.35-1.16,3.53-.02,1.82-.17,4.48.87,5.26,1.18.89,4.41.86,5.38-.11,3.16-3.2,6.37-6.68,8.33-10.66,2.67-5.44,4.08-11.48,6.25-17.18,3.71-9.74,12.37-14.77,22.55-13.31,10.57,1.52,16.23,12.04,11.82,21.99-4.01,9.04-14.16,13.14-23.83,9.63-3.59-1.3-4.34-.78-4.4,3.09-.07,4.08,2.71,7.02,7.45,7.91,10.25,1.91,20.35-3.38,25.18-13.31,1.43-2.94,2.87-5.58,6.74-5.43,3.71.15,5.47,2.47,4.18,5.94-5.01,13.52-14.52,21.39-29.07,22.89-8.09.83-15.6-.34-22.24-5.5-.66-.51-2.73,0-3.63.69-4.86,3.73-10.18,5.83-16.34,4.9-11.01-1.67-15.82-8.93-12.42-19.54,3.53-11.02,7.72-21.82,11.62-32.72.54-1.52,1.05-3.06,1.6-4.58.94-2.6.81-5.45-1.64-6.62-1.94-.92-5.53-1.25-6.84-.09-2.95,2.61-5.76,5.98-7.16,9.61-5.6,14.51-10.63,29.24-15.88,43.89-.63,1.76-1.2,3.54-1.98,5.23-1.97,4.3-6.24,6.15-10.12,4.51-3.32-1.41-4.22-4.48-2.49-9.31,5.1-14.17,10.29-28.31,15.41-42.48.59-1.63,1.47-3.36,1.38-5-.13-2.29-.36-5.64-1.78-6.51-1.78-1.09-5.55-1.06-7.16.18-2.6,1.99-4.83,5.1-6,8.2-5.99,15.83-11.6,31.81-17.33,47.74-1.26,3.49-2.74,6.66-6.97,7.51-4.44.89-7.79-1.61-7.55-6.12.09-1.7.61-3.43,1.19-5.05,7.22-20.29,14.79-40.46,21.58-60.89,2.24-6.75,9.48-9.91,15.34-3.37Zm75.3,44.29c.28-.02,1.06.05,1.76-.16,3.23-.96,5-3.04,4.98-6.53-.01-2.53-.96-4.5-3.52-5.01-3.37-.68-5.35,1.35-6.71,4.14-.33.67-.57,1.38-.83,2.07-1.67,4.54-.99,5.51,4.31,5.48Z"/>
    <path class="cls-2" d="m67.39,389.04c-.54.15-.66.21-.78.22-11.38.67-11.5.71-14.86-10.15-.87-2.81-2.12-3.67-4.96-3.56-5.48.22-10.99.14-16.48.02-2.1-.05-3.11.64-3.69,2.72-1.03,3.7-2.39,7.3-3.59,10.89h-12.1c6.92-20.01,13.74-39.74,20.53-59.36.42-.13.65-.27.89-.27,4.62,0,10.32-1.63,13.54.5,3.1,2.05,3.78,7.93,5.28,12.21,5.43,15.49,10.76,31.01,16.22,46.79Zm-20.22-23.69c-2.65-7.99-5.18-15.63-7.71-23.26-.35.04-.71.08-1.06.12-2.48,7.61-4.96,15.22-7.54,23.14h16.31Z"/>
    <path class="cls-2" d="m138.33,364.95c5.78,7.92,11.47,15.72,17.78,24.38-4.59,0-8.15.16-11.67-.1-.96-.07-2-1.28-2.7-2.19-4.25-5.5-8.42-11.07-13.47-16.42v18.49h-11.38v-62.77h11.04v35.34c1.36-1.25,2.08-1.76,2.61-2.43,3.16-4.03,6.4-7.99,9.34-12.18,1.55-2.21,3.27-3.09,5.92-2.86,2.47.22,4.97.05,8.55.05-5.64,7.29-10.76,13.91-16.01,20.69Z"/>
    <path class="cls-2" d="m105.93,349.96c-1.99,2.16-3.91,4.25-6.14,6.67-3.45-3.42-7.5-4.9-12.24-4.17-2.24.35-4.23.99-4.47,3.66-.24,2.65,1.54,3.85,3.7,4.45,3.48.97,7.07,1.58,10.53,2.62,6.97,2.1,10.15,6.21,10.09,12.63-.06,6.47-3.62,11.49-10.1,13.24-8.17,2.22-16.15,1.59-23.3-3.39-3.86-2.69-3.82-3.53-.71-6.9,1.17-1.27,2.37-2.51,3.21-3.4,3.58,1.9,6.67,4,10.08,5.17,2.06.7,4.73.34,6.91-.3,1.2-.35,2.61-2.22,2.69-3.48.08-1.26-1.06-3.2-2.22-3.82-2.15-1.15-4.71-1.51-7.08-2.27-2.72-.88-5.59-1.51-8.08-2.83-7.76-4.13-8.64-14.71-2.06-20.55,6.28-5.58,23.88-5.35,29.18,2.68Z"/>
  </g>
</svg>