<?xml version="1.0" encoding="UTF-8"?>
<svg id="Layer_2" data-name="Layer 2" xmlns="http://www.w3.org/2000/svg" viewBox="0 0 977 308.96">
  <defs>
    <style>
      .cls-1 {
        fill: #f97316;
      }

      .cls-2 {
        fill: #222;
      }
    </style>
  </defs>
  <g id="Layer_2-2" data-name="Layer 2">
    <path class="cls-1" d="m154.78.03C182.65.03,210.52.12,238.39,0c21.8-.09,39.94,7.91,54.24,24.23,10.46,11.94,16.52,26.04,16.66,41.91.36,40.05.49,80.1,0,120.14-.43,35.11-31.52,65.51-66.85,65.95-26.24.32-52.48,0-78.73.22-2.9.02-6.18,1.08-8.61,2.68-21.81,14.31-43.47,28.85-65.18,43.32-3.74,2.49-7.51,4.93-11.2,7.49-4.71,3.27-9.76,4.09-14.84,1.42-5.18-2.72-7.53-7.33-7.49-13.25.08-13.1-.03-26.2.07-39.3.02-2.56-.82-3.62-3.36-4.37C22.83,241.59,5.44,221.32.31,190.42c-.44-2.68-.25-5.48-.25-8.22C.04,144.9.21,107.59,0,70.29-.19,35.21,26.07,4.44,62.2.35c3.46-.39,6.99-.3,10.49-.31,27.37-.02,54.73,0,82.1,0h-.01Zm-14.76,146.39c0,1.76-.16,4.76.03,7.74.58,8.88,7.12,15.29,15.09,14.95,8.38-.36,14.22-6.65,14.37-15.63.09-5.11.13-10.23,0-15.34-.14-4.97,1.31-9.47,4.29-13.25,2.28-2.89,5.18-5.35,8.04-7.73,16.31-13.61,20.55-35.42,10.4-54.07-9.05-16.64-28.8-25.17-46.75-21.06-19.51,4.47-33.72,22.2-33.46,41.53.12,8.5,5.92,14.7,14.06,14.86,8.56.16,14.6-5.56,15.06-14.26.34-6.43,5.01-12.44,10.48-13.48,6.81-1.31,12.99,1.89,15.62,8.07,2.52,5.93.55,12.26-5.05,16.46-5.84,4.38-10.79,9.55-14.65,15.82-6.51,10.55-7.81,22.17-7.52,35.4h0Zm14.93,64.91c8.01-.05,14.53-6.59,14.54-14.59,0-8.14-6.76-14.89-14.82-14.79-7.78.1-14.57,6.94-14.58,14.68,0,8.16,6.64,14.74,14.86,14.69h0Z"/>
    <g>
      <path class="cls-1" d="m763.65,84.15c19.51-11.17,26.57-10.31,42.18,4.21,8.91-3.7,17.07-8.37,25.84-10.48,24.73-5.96,43.77,14.34,35.86,38.44-8.39,25.47-18.1,50.49-27.25,75.73-.82,2.29-2.25,4.6-2.27,6.92-.04,3.57-.33,8.78,1.7,10.31,2.31,1.74,8.64,1.68,10.54-.22,6.19-6.27,12.48-13.09,16.32-20.89,5.23-10.66,7.99-22.49,12.25-33.66,7.27-19.08,24.24-28.94,44.18-26.08,20.71,2.98,31.8,23.59,23.16,43.09-7.86,17.71-27.74,25.75-46.69,18.87-7.03-2.55-8.5-1.53-8.62,6.05-.14,7.99,5.31,13.75,14.6,15.5,20.08,3.74,39.87-6.62,49.34-26.08,2.8-5.76,5.62-10.93,13.21-10.64,7.27.29,10.72,4.84,8.19,11.64-9.82,26.49-28.45,41.91-56.96,44.85-15.85,1.63-30.57-.67-43.58-10.78-1.29-1-5.35,0-7.11,1.35-9.52,7.31-19.95,11.42-32.02,9.6-21.57-3.27-31-17.5-24.33-38.29,6.92-21.59,15.13-42.75,22.77-64.11,1.06-2.98,2.06-6,3.13-8.97,1.84-5.09,1.59-10.68-3.21-12.97-3.8-1.8-10.84-2.45-13.4-.18-5.78,5.11-11.29,11.72-14.03,18.83-10.97,28.43-20.83,57.29-31.11,85.99-1.23,3.45-2.35,6.94-3.88,10.25-3.86,8.43-12.23,12.05-19.83,8.84-6.5-2.76-8.27-8.78-4.88-18.24,9.99-27.76,20.16-55.47,30.19-83.23,1.16-3.19,2.88-6.58,2.7-9.8-.25-4.49-.71-11.05-3.49-12.76-3.49-2.14-10.87-2.08-14.03.35-5.09,3.9-9.46,9.99-11.76,16.07-11.74,31.02-22.73,62.33-33.95,93.54-2.47,6.84-5.37,13.05-13.66,14.71-8.7,1.74-15.26-3.15-14.79-11.99.18-3.33,1.2-6.72,2.33-9.89,14.15-39.75,28.98-79.27,42.28-119.3,4.39-13.23,18.57-19.42,30.06-6.6l.02.02Zm147.54,86.78c.55-.04,2.08.1,3.45-.31,6.33-1.88,9.8-5.96,9.76-12.79-.02-4.96-1.88-8.82-6.9-9.82-6.6-1.33-10.48,2.65-13.15,8.11-.65,1.31-1.12,2.7-1.63,4.06-3.27,8.9-1.94,10.8,8.44,10.74l.02.02Z"/>
      <path class="cls-2" d="m494.77,224.02c-1.06.29-1.29.41-1.53.43-22.3,1.31-22.53,1.39-29.12-19.89-1.7-5.51-4.15-7.19-9.72-6.98-10.74.43-21.53.27-32.29.04-4.11-.1-6.09,1.25-7.23,5.33-2.02,7.25-4.68,14.3-7.03,21.34h-23.71c13.56-39.21,26.92-77.86,40.22-116.3.82-.25,1.27-.53,1.74-.53,9.05,0,20.22-3.19,26.53.98,6.07,4.02,7.41,15.54,10.35,23.92,10.64,30.35,21.08,60.76,31.78,91.68v-.02Zm-39.62-46.42c-5.19-15.65-10.15-30.62-15.11-45.57-.69.08-1.39.16-2.08.24-4.86,14.91-9.72,29.82-14.77,45.34h31.96Z"/>
      <path class="cls-2" d="m633.77,176.82c11.32,15.52,22.47,30.8,34.84,47.77-8.99,0-15.97.31-22.87-.2-1.88-.14-3.92-2.51-5.29-4.29-8.33-10.78-16.5-21.69-26.39-32.17v36.23h-22.3v-122.99h21.63v69.24c2.66-2.45,4.08-3.45,5.11-4.76,6.19-7.9,12.54-15.65,18.3-23.86,3.04-4.33,6.41-6.05,11.6-5.6,4.84.43,9.74.1,16.75.1-11.05,14.28-21.08,27.25-31.37,40.54h-.02Z"/>
      <path class="cls-2" d="m570.29,147.45c-3.9,4.23-7.66,8.33-12.03,13.07-6.76-6.7-14.69-9.6-23.98-8.17-4.39.69-8.29,1.94-8.76,7.17-.47,5.19,3.02,7.54,7.25,8.72,6.82,1.9,13.85,3.1,20.63,5.13,13.66,4.11,19.89,12.17,19.77,24.75-.12,12.68-7.09,22.51-19.79,25.94-16.01,4.35-31.64,3.12-45.65-6.64-7.56-5.27-7.48-6.92-1.39-13.52,2.29-2.49,4.64-4.92,6.29-6.66,7.01,3.72,13.07,7.84,19.75,10.13,4.04,1.37,9.27.67,13.54-.59,2.35-.69,5.11-4.35,5.27-6.82s-2.08-6.27-4.35-7.48c-4.21-2.25-9.23-2.96-13.87-4.45-5.33-1.72-10.95-2.96-15.83-5.54-15.2-8.09-16.93-28.82-4.04-40.26,12.3-10.93,46.79-10.48,57.17,5.25l.02-.02Z"/>
    </g>
  </g>
</svg>